<?xml version="1.0" standalone="no"?>
<!DOCTYPE svg PUBLIC "-//W3C//DTD SVG 20010904//EN"
 "http://www.w3.org/TR/2001/REC-SVG-20010904/DTD/svg10.dtd">
<svg version="1.0" xmlns="http://www.w3.org/2000/svg"
 width="560.000000pt" height="560.000000pt" viewBox="0 0 560.000000 560.000000"
 preserveAspectRatio="xMidYMid meet">
<metadata>
Created by potrace 1.11, written by Peter Selinger 2001-2013
</metadata>
<g transform="translate(0.000000,560.000000) scale(0.100000,-0.100000)"
fill="#000000" stroke="none">
<path d="M984 5573 c-29 -40 -51 -99 -79 -216 -28 -118 -69 -336 -85 -452 -6
-43 -19 -120 -30 -170 -11 -49 -25 -112 -31 -140 -9 -47 -79 -535 -79 -555 0
-6 -6 -10 -14 -10 -8 0 -16 15 -19 38 -3 20 -15 90 -26 154 -17 97 -28 187
-42 348 -3 29 -17 -86 -19 -150 l-2 -65 -13 59 c-7 33 -11 66 -8 73 3 7 -2 13
-10 13 -8 0 -18 -7 -21 -16 -8 -22 -7 -127 2 -140 12 -18 45 -26 54 -12 5 9 8
7 8 -7 0 -12 4 -25 9 -30 10 -11 31 -126 31 -168 0 -26 -1 -26 -57 -23 -32 2
-82 13 -110 24 -56 21 -58 21 -44 -7 6 -10 6 -35 -1 -64 -7 -34 -7 -52 1 -61
14 -17 -13 -26 -79 -26 -25 0 -52 -5 -60 -10 -11 -7 -5 -10 25 -10 54 0 85
-10 85 -26 0 -7 9 -19 21 -27 19 -14 20 -15 2 -20 -10 -3 -44 -5 -76 -5 -33 0
-61 -2 -63 -5 -2 -2 7 -41 20 -88 13 -46 31 -124 41 -174 22 -116 52 -210 136
-425 98 -252 146 -360 166 -377 10 -8 12 -12 6 -8 -20 10 -15 -2 9 -24 12 -11
22 -31 24 -43 1 -13 3 -27 3 -31 1 -5 5 -6 9 -3 5 3 19 -9 33 -26 13 -16 30
-36 37 -43 6 -8 12 -17 12 -20 0 -4 9 -20 20 -35 11 -16 36 -60 55 -99 58
-117 230 -358 211 -294 -4 12 -25 40 -46 63 -22 24 -40 48 -40 55 0 7 -8 23
-18 36 -19 25 -35 59 -27 59 2 0 16 -17 30 -37 37 -55 31 -31 -8 30 -18 29
-57 97 -87 152 -29 55 -62 113 -73 129 -32 46 -220 424 -254 511 -18 44 -50
130 -72 190 -22 61 -47 127 -55 147 -9 21 -21 70 -26 109 -6 40 -16 82 -23 94
-6 12 -20 36 -29 53 l-17 30 31 4 c24 4 38 -1 61 -22 25 -22 30 -34 32 -81 2
-48 9 -64 64 -146 34 -51 71 -97 81 -103 39 -21 58 -66 160 -370 67 -200 185
-470 222 -505 5 -5 -10 31 -35 80 -66 133 -96 227 -114 350 -8 60 -21 122 -29
137 -23 45 -16 42 37 -16 49 -54 53 -56 88 -50 20 4 44 11 55 16 10 6 53 10
95 10 42 0 96 3 121 8 41 7 38 8 -35 9 -78 1 -117 12 -102 27 4 5 24 7 43 7
22 -1 37 4 41 13 3 8 19 14 36 14 54 0 1 25 -98 45 -16 4 -66 24 -110 45 -66
31 -96 54 -157 118 -53 56 -80 93 -91 127 -25 71 -21 235 4 219 5 -3 9 -1 9 4
0 6 9 8 20 5 11 -3 20 -13 20 -22 0 -24 116 -240 159 -298 73 -96 180 -136
361 -136 195 1 308 41 376 134 19 27 42 49 49 49 8 0 16 18 20 48 9 67 21 84
34 49 6 -16 11 -36 11 -45 0 -31 28 -59 99 -100 l69 -40 -10 37 c-13 46 -25
70 -52 99 l-21 24 60 -22 c33 -13 75 -36 93 -53 50 -48 36 -3 -19 61 -33 37
-37 59 -11 64 12 2 4 11 -27 28 -24 14 -51 36 -60 49 -15 23 -15 23 9 17 14
-4 45 -21 69 -37 24 -17 45 -28 48 -25 37 36 -292 289 -333 255 -9 -7 -16 8
-28 58 -19 85 -27 163 -15 163 5 0 26 -16 47 -35 22 -19 42 -32 46 -28 3 3 6
1 6 -6 0 -7 5 -9 12 -5 7 5 8 3 3 -6 -6 -10 -4 -12 7 -7 9 3 21 0 27 -6 12
-12 15 -31 4 -24 -5 3 -16 -3 -26 -13 -15 -15 -16 -18 -3 -23 9 -4 19 0 23 8
7 11 12 10 33 -5 14 -11 20 -20 13 -20 -6 0 -15 5 -18 10 -8 12 -25 13 -25 1
0 -5 11 -12 24 -15 17 -4 35 -25 56 -65 18 -33 41 -69 52 -81 18 -19 22 -20
29 -7 15 27 46 7 67 -41 26 -61 52 -139 52 -156 0 -21 45 -158 64 -195 10 -19
29 -88 41 -155 l24 -121 -6 80 c-6 94 -42 236 -123 487 -67 208 -93 276 -141
368 -32 61 -36 65 -69 66 -32 1 -209 72 -237 96 -7 6 -14 35 -14 67 l-2 56 -7
-65 c-4 -36 -6 -69 -4 -75 10 -27 44 -334 44 -393 0 -77 -10 -102 -33 -83 -28
23 -95 178 -142 327 -26 82 -69 205 -95 274 -27 69 -60 161 -74 205 -69 220
-67 214 -60 165 3 -25 24 -99 45 -164 41 -126 48 -159 23 -113 -11 20 -51 44
-160 97 -80 39 -147 70 -149 70 -3 0 -43 18 -90 40 -71 34 -85 45 -85 65 0 45
69 318 91 357 5 10 9 26 9 37 0 12 9 21 25 25 14 4 25 13 25 22 0 8 4 13 9 10
5 -3 21 34 36 82 34 109 45 132 62 132 8 0 20 -15 28 -32 22 -52 19 -7 -10
118 -34 152 -39 169 -56 172 -8 1 -24 -10 -35 -25z m29 -1087 c38 -27 99 -77
137 -112 80 -73 106 -91 149 -104 22 -6 31 -5 31 3 1 7 11 -6 22 -28 23 -43
90 -256 83 -263 -3 -3 -31 5 -62 17 -32 13 -92 29 -133 36 -41 8 -115 21 -165
29 -49 9 -151 19 -225 21 l-135 6 3 62 c1 33 9 100 17 148 9 48 20 132 25 186
5 55 12 106 15 114 5 13 21 8 88 -25 45 -23 113 -63 150 -90z m315 -187 c-3
-8 -7 -3 -11 10 -4 17 -3 21 5 13 5 -5 8 -16 6 -23z m-833 -230 c39 -14 67
-19 91 -15 27 6 34 4 34 -9 0 -8 -2 -15 -3 -15 -2 0 -46 -9 -98 -20 -104 -22
-109 -20 -109 43 0 44 7 45 85 16z m400 -19 c14 -6 -2 -9 -50 -9 -49 -1 -65 2
-55 9 18 12 78 12 105 0z m929 -85 c11 -8 15 -15 10 -15 -6 0 -19 7 -30 15
-10 8 -14 14 -9 14 6 0 19 -6 29 -14z m-808 -401 c21 -10 34 -24 34 -35 0 -26
-32 -24 -57 4 -45 49 -37 60 23 31z m259 -5 c10 -30 0 -33 -13 -4 -6 14 -7 25
-2 25 5 0 12 -9 15 -21z"/>
<path d="M3702 5478 c-7 -68 -17 -179 -22 -248 -6 -69 -17 -186 -25 -260 -23
-204 -63 -651 -70 -775 -4 -60 -18 -159 -32 -219 -25 -106 -25 -110 -8 -139
10 -17 24 -49 32 -71 l13 -41 -4 35 c-2 19 -10 50 -17 68 -23 54 10 85 158
147 100 41 153 74 153 94 0 10 -3 11 -14 2 -28 -23 -27 8 0 36 26 26 28 34 37
173 6 88 7 161 1 185 -7 31 -10 -1 -15 -145 -3 -102 -6 -185 -7 -186 -1 0 -19
-6 -41 -12 -21 -7 -55 -23 -75 -37 -63 -43 -174 -91 -184 -80 -3 2 2 44 11 92
9 48 24 165 33 258 9 94 20 174 24 179 5 4 6 24 3 43 -3 18 -1 75 6 126 25
200 19 180 49 172 15 -4 32 -8 37 -9 6 -1 19 -7 30 -12 11 -6 32 -10 48 -9 15
0 27 -3 27 -8 0 -4 4 -6 8 -3 13 8 31 -33 36 -79 9 -88 -3 391 -15 545 -11
153 -36 307 -38 237 -1 -39 -21 -31 -45 18 l-20 39 -14 -34 c-7 -19 -17 -52
-22 -75 -9 -46 -13 -24 -10 63 3 99 -16 52 -28 -70z m37 -86 c0 -30 -2 -33 -9
-17 -12 28 -12 67 0 60 6 -3 10 -23 9 -43z m61 -31 c0 -11 -4 -23 -10 -26 -6
-4 -10 5 -10 19 0 14 5 26 10 26 6 0 10 -9 10 -19z"/>
<path d="M4670 5585 c0 -20 24 -67 62 -122 16 -24 36 -62 44 -85 22 -62 55
-128 64 -128 10 0 -46 177 -65 205 -7 11 -23 31 -35 45 -12 14 -31 42 -41 63
-21 40 -29 46 -29 22z"/>
<path d="M4820 5560 c0 -40 13 -53 24 -24 11 29 7 64 -9 64 -11 0 -15 -11 -15
-40z"/>
<path d="M5082 5580 c0 -14 2 -19 5 -12 2 6 2 18 0 25 -3 6 -5 1 -5 -13z"/>
<path d="M5585 5590 c3 -5 8 -10 11 -10 2 0 4 5 4 10 0 6 -5 10 -11 10 -5 0
-7 -4 -4 -10z"/>
<path d="M4740 5581 c0 -5 5 -13 10 -16 6 -3 10 -2 10 4 0 5 -4 13 -10 16 -5
3 -10 2 -10 -4z"/>
<path d="M5570 5572 c0 -12 19 -26 26 -19 2 2 -2 10 -11 17 -9 8 -15 8 -15 2z"/>
<path d="M4615 5500 c7 -86 33 -247 55 -340 10 -47 31 -137 44 -200 14 -63 32
-137 40 -165 8 -27 19 -81 25 -120 6 -38 14 -82 17 -96 4 -24 -1 -31 -53 -63
-70 -44 -60 -48 14 -6 29 17 56 30 61 30 4 0 16 -42 26 -92 11 -51 25 -111 33
-133 42 -120 85 -375 64 -375 -12 0 -71 114 -71 136 0 6 -9 19 -19 28 -11 10
-29 41 -41 69 -12 29 -49 100 -82 159 -39 70 -59 115 -55 128 3 12 0 20 -7 20
-15 0 -124 225 -181 372 -21 54 -40 97 -41 95 -6 -6 56 -175 94 -258 54 -117
86 -198 81 -202 -2 -2 -24 -19 -49 -37 -46 -33 -36 -34 39 -4 33 14 51 11 51
-7 0 -5 32 -74 71 -152 39 -78 75 -153 80 -166 9 -21 7 -23 -15 -17 -13 3 -48
1 -78 -4 -30 -6 -83 -14 -119 -19 -82 -11 -436 -103 -524 -136 -37 -14 -84
-35 -106 -46 -52 -26 -79 -14 -80 39 -1 20 -5 51 -9 67 -10 41 -13 14 -10
-101 l2 -91 -36 -21 c-20 -12 -36 -28 -36 -37 0 -19 0 -19 40 10 46 34 50 24
9 -23 -75 -86 -238 -325 -243 -354 -1 -7 -5 -19 -10 -26 -10 -16 100 43 134
73 50 43 136 104 164 116 27 13 30 12 45 -11 8 -14 53 -64 99 -111 90 -94 101
-99 239 -120 90 -14 157 -5 241 31 109 48 262 246 319 414 10 31 18 44 21 33
2 -10 15 -30 28 -44 19 -20 23 -22 18 -7 -4 10 -15 24 -23 31 -9 6 -13 15 -8
19 4 4 7 2 7 -4 0 -9 12 -10 40 -6 33 5 40 4 40 -9 0 -10 6 -14 14 -11 7 3 23
-6 34 -20 11 -14 29 -26 40 -26 40 0 39 -76 -2 -155 -20 -39 -28 -136 -13
-152 11 -10 45 26 52 55 l7 27 10 -25 c6 -14 11 -106 11 -205 1 -112 4 -163 9
-135 4 25 6 190 6 367 -1 351 -3 342 57 368 20 8 35 22 39 38 4 16 17 29 38
36 29 10 30 13 17 27 -10 9 -43 17 -88 21 -50 4 -82 13 -104 28 -30 20 -32 25
-30 73 3 56 -7 64 -39 35 -17 -16 -20 -16 -35 0 -21 21 -20 78 1 109 25 36 21
152 -9 244 -14 43 -30 83 -37 91 -9 11 -7 15 10 20 28 7 29 20 15 142 -15 123
-24 155 -69 236 -18 33 -42 89 -54 125 -22 66 -38 101 -49 110 -13 10 -116
184 -140 235 -7 17 -20 53 -27 80 l-14 50 5 -55z m-487 -1972 c4 -21 -37 -36
-49 -17 -10 17 9 41 30 37 9 -2 17 -11 19 -20z m-488 -121 c-19 -18 -27 -23
-20 -12 27 38 43 55 49 50 3 -3 -10 -20 -29 -38z m700 3 c0 -6 -11 -9 -25 -7
-37 5 -42 17 -7 17 18 0 32 -5 32 -10z"/>
<path d="M4780 5526 c0 -11 41 -79 54 -88 5 -4 17 -3 26 2 9 5 22 5 31 -1 21
-13 25 -11 24 16 0 32 -22 55 -31 32 -8 -21 -40 -22 -48 -2 -3 8 -12 15 -20
15 -8 0 -20 8 -25 18 -6 9 -11 13 -11 8z"/>
<path d="M5093 5475 c0 -22 2 -30 4 -17 2 12 2 30 0 40 -3 9 -5 -1 -4 -23z"/>
<path d="M4332 5320 c-8 -47 -22 -124 -33 -172 -25 -114 -24 -120 8 -75 l26
37 34 -38 c19 -20 43 -55 53 -77 27 -55 25 -36 -9 76 -31 104 -59 231 -63 294
-3 32 -6 23 -16 -45z"/>
<path d="M4892 5365 c0 -16 2 -22 5 -12 2 9 2 23 0 30 -3 6 -5 -1 -5 -18z"/>
<path d="M1111 5214 c0 -11 3 -14 6 -6 3 7 2 16 -1 19 -3 4 -6 -2 -5 -13z"/>
<path d="M1131 5084 c-1 -31 39 -223 59 -279 l10 -30 -4 30 c-3 32 -54 283
-61 300 -2 6 -4 -4 -4 -21z"/>
<path d="M1506 4975 c6 -50 23 -98 24 -65 0 8 -7 38 -15 65 l-15 50 6 -50z"/>
<path d="M275 4948 c-10 -35 -27 -80 -37 -100 -10 -21 -16 -38 -13 -38 15 0
84 184 73 196 -3 2 -13 -24 -23 -58z"/>
<path d="M4192 4774 c-13 -42 -21 -78 -19 -80 2 -3 14 30 27 72 12 41 20 77
18 79 -2 3 -14 -30 -26 -71z"/>
<path d="M5133 4785 c0 -27 2 -38 4 -22 2 15 2 37 0 50 -2 12 -4 0 -4 -28z"/>
<path d="M1552 4779 c-16 -25 -14 -84 8 -264 15 -117 18 -131 15 -64 -4 64 -1
89 8 97 10 9 18 4 32 -21 27 -46 90 -106 102 -99 13 8 -23 112 -38 112 -11 0
-31 44 -35 76 -3 25 -51 141 -68 166 -11 15 -13 15 -24 -3z"/>
<path d="M550 4759 c0 -37 14 -88 21 -83 15 9 10 71 -6 84 -12 10 -15 10 -15
-1z"/>
<path d="M3302 4730 c0 -19 3 -44 8 -55 7 -17 9 -15 8 10 0 17 -4 41 -8 55 -7
23 -8 22 -8 -10z"/>
<path d="M630 4716 c0 -7 92 -58 96 -53 3 3 -16 16 -42 31 -47 26 -54 29 -54
22z"/>
<path d="M4138 4604 c-9 -27 -39 -114 -67 -193 -28 -80 -49 -146 -47 -148 2
-2 22 50 45 114 24 65 54 148 68 185 13 38 23 73 21 79 -2 7 -11 -10 -20 -37z"/>
<path d="M3662 4615 c0 -16 2 -22 5 -12 2 9 2 23 0 30 -3 6 -5 -1 -5 -18z"/>
<path d="M3300 4493 c0 -6 17 -44 38 -85 21 -40 48 -98 61 -129 12 -31 34 -67
49 -80 l26 -24 -23 35 c-12 19 -31 55 -42 80 -26 57 -99 203 -105 209 -2 2 -4
-1 -4 -6z"/>
<path d="M3176 4478 c4 -7 28 -42 52 -78 49 -71 87 -115 56 -65 -30 49 -105
155 -110 155 -3 0 -2 -6 2 -12z"/>
<path d="M2171 4442 c-1 -24 3 -96 9 -160 11 -135 29 -571 36 -881 2 -118 7
-217 10 -220 4 -3 3 147 -1 334 -12 551 -12 539 6 543 11 2 29 -23 59 -83 26
-52 47 -82 52 -77 6 6 -1 30 -17 62 -23 46 -70 204 -135 455 -17 69 -18 69
-19 27z"/>
<path d="M5476 4383 c-8 -81 -23 -188 -37 -261 -17 -87 -4 -69 19 25 19 80 41
303 29 303 -3 0 -8 -30 -11 -67z"/>
<path d="M420 4410 c-3 -61 -21 -217 -26 -232 -3 -10 -1 -18 4 -18 6 0 12 19
15 43 3 23 11 72 18 109 9 50 9 74 1 90 -7 15 -11 17 -12 8z"/>
<path d="M4373 4375 c-73 -24 -140 -49 -150 -55 -17 -11 -16 -11 2 -5 11 4 82
27 158 52 75 24 137 46 137 49 0 7 -11 4 -147 -41z"/>
<path d="M4510 4373 c-150 -56 -368 -159 -357 -169 2 -2 55 20 118 50 63 30
150 69 194 86 44 17 82 34 84 36 6 6 -21 4 -39 -3z"/>
<path d="M1760 4334 c0 -6 7 -19 16 -30 14 -18 14 -18 3 6 -14 31 -19 36 -19
24z"/>
<path d="M3061 4320 c0 -8 4 -22 9 -30 12 -18 12 -2 0 25 -6 13 -9 15 -9 5z"/>
<path d="M1401 4283 c50 -66 92 -113 96 -109 3 3 -15 29 -41 58 -25 29 -46 56
-46 60 0 5 -5 8 -11 8 -8 0 -7 -6 2 -17z"/>
<path d="M4128 4284 c-21 -7 -52 -21 -69 -29 -17 -9 -33 -14 -37 -11 -8 8 -42
-45 -41 -64 0 -9 5 -5 12 9 7 16 42 39 102 67 90 43 103 53 33 28z"/>
<path d="M1458 4270 c42 -26 56 -26 17 0 -16 11 -34 20 -40 20 -5 0 5 -9 23
-20z"/>
<path d="M4110 4190 c-8 -5 -10 -10 -5 -10 6 0 17 5 25 10 8 5 11 10 5 10 -5
0 -17 -5 -25 -10z"/>
<path d="M3353 4170 c29 -108 122 -374 139 -396 42 -55 161 -189 175 -197 17
-10 -46 80 -97 139 -59 70 -99 146 -146 280 -39 111 -83 220 -71 174z"/>
<path d="M4038 4160 c-20 -11 -40 -25 -43 -31 -4 -6 16 1 44 15 28 15 51 29
51 31 0 9 -14 5 -52 -15z"/>
<path d="M1850 4141 c0 -5 5 -13 10 -16 6 -3 10 -2 10 4 0 5 -4 13 -10 16 -5
3 -10 2 -10 -4z"/>
<path d="M3942 4067 c-11 -29 -23 -75 -26 -102 -5 -41 -2 -36 17 33 13 46 29
88 36 95 13 13 14 27 2 27 -5 0 -18 -24 -29 -53z"/>
<path d="M3120 4088 c0 -2 7 -35 15 -73 16 -73 30 -143 67 -330 11 -60 27
-126 35 -145 l13 -35 -5 50 c-4 28 -9 86 -13 130 -4 44 -11 85 -15 92 -4 6
-10 38 -13 70 -4 32 -8 65 -10 73 -1 8 -3 18 -3 23 -1 4 -7 7 -15 7 -14 0 -18
11 -32 93 -3 20 -10 40 -15 43 -5 3 -9 4 -9 2z"/>
<path d="M5416 4014 c-4 -20 -5 -38 -2 -41 2 -3 8 11 12 31 3 21 4 39 1 42 -2
3 -8 -11 -11 -32z"/>
<path d="M1708 4011 c8 -4 13 -12 13 -17 -1 -14 32 -11 37 4 2 7 -2 10 -11 6
-8 -3 -18 -1 -22 5 -3 6 -12 11 -18 11 -8 0 -8 -3 1 -9z"/>
<path d="M5383 3885 c-12 -44 -25 -93 -29 -110 -4 -16 -26 -82 -50 -145 -23
-63 -54 -164 -69 -225 -14 -60 -41 -157 -59 -215 -35 -109 -53 -220 -37 -220
5 0 13 10 16 21 5 15 10 18 15 9 4 -6 10 -11 14 -11 3 1 7 1 9 0 1 0 19 -2 39
-4 l37 -3 21 67 c31 101 70 294 80 397 5 56 17 110 30 139 17 37 22 66 21 122
-1 52 4 81 15 98 18 27 12 80 -11 92 -7 5 -15 22 -17 38 -2 24 -8 14 -25 -50z"/>
<path d="M2410 3771 c0 -6 4 -13 10 -16 6 -3 7 1 4 9 -7 18 -14 21 -14 7z"/>
<path d="M4936 3695 c21 -16 44 -19 44 -6 0 5 -10 11 -22 15 -37 9 -43 7 -22
-9z"/>
<path d="M5167 3697 c-3 -8 -2 -19 3 -26 5 -9 9 -4 12 13 5 27 -6 36 -15 13z"/>
<path d="M3251 3484 c0 -11 3 -14 6 -6 3 7 2 16 -1 19 -3 4 -6 -2 -5 -13z"/>
<path d="M3262 3435 c0 -11 4 -33 8 -50 7 -27 8 -27 8 -5 0 14 -4 36 -8 50 -6
20 -8 21 -8 5z"/>
<path d="M3760 3431 c0 -5 14 -20 32 -32 31 -22 31 -12 0 24 -16 19 -32 23
-32 8z"/>
<path d="M3281 3324 c0 -11 3 -14 6 -6 3 7 2 16 -1 19 -3 4 -6 -2 -5 -13z"/>
<path d="M3292 3260 c0 -14 3 -45 7 -70 6 -34 9 -37 9 -15 1 17 -3 48 -7 70
-6 25 -9 31 -9 15z"/>
<path d="M2755 3140 c9 -16 18 -30 21 -30 2 0 -2 14 -11 30 -9 17 -18 30 -21
30 -2 0 2 -13 11 -30z"/>
<path d="M3312 3115 c0 -16 2 -22 5 -12 2 9 2 23 0 30 -3 6 -5 -1 -5 -18z"/>
<path d="M2825 3020 c9 -16 18 -30 21 -30 2 0 -2 14 -11 30 -9 17 -18 30 -21
30 -2 0 2 -13 11 -30z"/>
<path d="M2903 2883 c2 -5 23 -48 47 -98 45 -96 165 -285 180 -285 9 0 -85
153 -116 190 -7 8 -33 57 -59 108 -26 50 -49 92 -51 92 -3 0 -3 -3 -1 -7z"/>
<path d="M5217 2843 c-20 -33 -158 -406 -157 -423 1 -3 9 11 20 30 26 50 152
391 147 397 -3 2 -7 1 -10 -4z"/>
<path d="M0 2743 c0 -21 14 -56 39 -96 21 -35 60 -106 85 -158 26 -52 52 -102
57 -112 18 -33 0 -32 -35 2 -34 33 -53 30 -41 -8 4 -14 -1 -20 -22 -24 -15 -3
-40 -3 -55 -1 -19 2 -28 -1 -28 -11 0 -19 143 -155 223 -214 34 -24 68 -51 75
-58 22 -21 1 -15 -32 10 -38 29 -63 40 -98 42 -28 2 -44 -17 -32 -38 18 -31
79 -107 86 -107 5 0 21 -11 36 -25 15 -14 31 -25 36 -25 5 0 31 -22 57 -50 26
-27 50 -50 54 -50 3 0 3 11 -1 24 -5 20 2 33 34 65 22 23 37 41 33 41 -4 0
-12 -5 -19 -12 -6 -6 -14 -9 -18 -6 -3 4 4 11 15 18 15 8 27 8 42 0 17 -9 23
-8 35 7 13 17 14 17 7 -1 -5 -15 -3 -17 7 -11 10 6 12 4 7 -8 -3 -10 -2 -17 3
-17 5 0 15 -13 23 -29 33 -66 -19 -374 -107 -627 -47 -137 -69 -194 -76 -194
-3 0 -13 26 -23 58 -41 130 -259 598 -332 712 l-35 55 0 -64 c0 -61 4 -72 81
-219 44 -85 98 -182 118 -216 47 -76 87 -161 96 -203 5 -27 2 -37 -19 -58 -32
-32 -91 -33 -194 -5 -39 11 -74 20 -77 20 -3 0 -5 -259 -5 -575 l0 -575 516 0
c329 0 513 3 509 10 -3 5 3 49 14 97 11 48 25 113 30 143 8 46 9 35 6 -70 -2
-69 -7 -137 -11 -152 -6 -26 -4 -28 25 -28 36 0 34 -9 32 160 -1 133 8 186 32
184 32 -3 280 -180 367 -262 l88 -82 564 0 563 1 -80 43 c-124 66 -297 170
-393 235 -48 32 -152 101 -232 153 -80 52 -188 127 -240 166 -52 39 -115 86
-140 104 -232 169 -484 415 -642 628 -156 210 -187 257 -253 387 -46 90 -55
115 -46 130 6 10 11 13 11 7 0 -20 48 -3 74 27 15 16 32 29 39 28 40 -2 247
-115 310 -169 l42 -35 -23 33 c-13 17 -28 32 -33 32 -6 0 -29 13 -52 29 -23
15 -89 56 -146 90 -57 34 -128 81 -159 104 -68 52 -129 93 -254 172 -143 90
-244 187 -332 319 -41 61 -85 127 -99 146 -13 19 -38 60 -55 90 -31 54 -32 54
-32 23z m444 -772 c3 -5 -1 -11 -9 -14 -9 -4 -12 -1 -8 9 6 16 10 17 17 5z
m249 -261 c24 -36 77 -110 118 -165 42 -55 94 -127 117 -160 23 -33 64 -91 92
-130 32 -44 58 -94 70 -135 19 -64 19 -66 0 -159 -10 -51 -22 -96 -25 -100 -4
-3 -15 4 -25 17 -24 29 -34 127 -27 247 3 51 1 98 -4 106 -8 13 -13 5 -10 -15
4 -18 -9 -56 -19 -56 -6 0 -24 29 -41 65 -16 35 -34 67 -40 70 -13 9 -12 4 12
-49 11 -26 19 -52 17 -57 -4 -12 -100 93 -166 181 -23 30 -54 83 -68 118 -25
57 -26 66 -14 101 14 43 0 99 -32 128 -17 15 -18 15 -7 -15 12 -35 9 -87 -6
-87 -6 0 -13 42 -16 95 -4 52 -10 104 -14 115 -9 24 27 -24 88 -115z"/>
<path d="M697 2619 c4 -13 8 -18 11 -10 2 7 -1 18 -6 23 -8 8 -9 4 -5 -13z"/>
<path d="M721 2582 c0 -7 10 -30 24 -52 14 -22 25 -42 25 -44 0 -3 25 -52 57
-108 31 -57 78 -143 105 -193 27 -49 46 -79 42 -65 -14 52 -54 131 -123 244
-39 65 -71 124 -71 131 0 7 -7 18 -15 25 -8 7 -15 21 -15 32 0 10 -4 17 -9 13
-5 -3 -12 3 -14 12 -3 10 -5 12 -6 5z"/>
<path d="M970 2520 c6 -11 13 -20 16 -20 2 0 0 9 -6 20 -6 11 -13 20 -16 20
-2 0 0 -9 6 -20z"/>
<path d="M1001 2465 c0 -5 8 -26 19 -45 11 -19 19 -30 19 -25 0 6 -8 26 -19
45 -11 19 -19 31 -19 25z"/>
<path d="M5042 2385 c-17 -37 -14 -45 4 -12 9 16 14 31 11 33 -2 2 -9 -7 -15
-21z"/>
<path d="M1046 2367 c3 -10 9 -15 12 -12 3 3 0 11 -7 18 -10 9 -11 8 -5 -6z"/>
<path d="M5208 2363 c-18 -21 -31 -43 -25 -43 2 0 13 14 25 30 25 33 24 41 0
13z"/>
<path d="M5016 2323 c-6 -14 -5 -15 5 -6 7 7 10 15 7 18 -3 3 -9 -2 -12 -12z"/>
<path d="M1070 2317 c0 -11 98 -217 104 -217 4 0 -91 210 -100 219 -2 2 -4 2
-4 -2z"/>
<path d="M21 2137 c-24 -94 -25 -100 -13 -93 18 11 46 111 36 129 -7 13 -13 4
-23 -36z"/>
<path d="M4994 2116 c-18 -28 -48 -106 -68 -173 -44 -150 -117 -308 -202 -435
-118 -178 -535 -586 -860 -843 -76 -60 -193 -155 -259 -210 -206 -173 -406
-324 -514 -388 l-105 -62 440 -3 c411 -2 440 -1 452 15 7 10 56 83 109 163
132 199 220 313 300 390 110 106 108 105 99 40 -15 -124 -37 -311 -47 -400 -6
-52 -16 -121 -23 -152 l-13 -57 61 7 c34 4 75 6 91 4 17 -1 62 -4 100 -7 l70
-6 -66 34 c-37 19 -80 45 -97 57 -24 18 -39 22 -67 17 l-36 -6 6 47 c45 397
52 426 153 611 32 58 70 133 86 166 16 33 43 83 61 110 59 91 103 169 130 230
28 60 28 60 36 30 4 -16 15 -80 23 -141 9 -60 30 -159 47 -218 31 -114 100
-278 107 -256 2 6 -7 35 -21 63 -37 74 -76 234 -89 362 -6 61 -8 201 -5 315 5
192 8 217 46 395 23 105 52 226 66 269 14 43 24 80 23 81 -2 2 -17 -20 -34
-49z m-227 -698 c-6 -41 -145 -394 -187 -479 -55 -109 -102 -190 -108 -185 -2
3 9 40 26 83 17 43 44 119 61 168 16 50 44 120 62 157 19 36 48 95 66 130 17
34 41 84 52 111 23 54 36 61 28 15z"/>
<path d="M4967 2136 c-9 -13 -47 -54 -84 -91 -37 -37 -56 -62 -44 -55 36 19
108 88 132 127 24 39 20 57 -4 19z"/>
<path d="M5524 2060 c-38 -58 -91 -141 -116 -185 -78 -137 -174 -335 -162
-335 3 0 13 20 24 45 25 59 173 315 219 380 19 28 52 71 74 97 28 35 38 55 35
75 -3 24 -11 16 -74 -77z"/>
<path d="M980 2087 c0 -12 70 -151 81 -162 6 -5 -8 28 -31 75 -43 86 -50 99
-50 87z"/>
<path d="M5583 1980 c-7 -41 -17 -140 -23 -220 -14 -191 -29 -293 -52 -359
-10 -30 -18 -56 -18 -58 0 -2 25 33 55 77 30 44 55 88 55 98 -1 10 -8 3 -20
-18 -11 -19 -19 -30 -19 -25 -2 42 21 295 30 328 5 23 9 89 7 147 l-3 105 -12
-75z"/>
<path d="M2806 1869 c-4 -29 -9 -66 -12 -83 -3 -24 -3 -27 4 -11 11 23 27 145
19 145 -2 0 -7 -23 -11 -51z"/>
<path d="M1120 1843 c13 -18 25 -33 27 -33 8 0 -17 38 -33 51 -11 9 -9 2 6
-18z"/>
<path d="M420 1698 c0 -9 5 -20 11 -23 17 -11 18 -2 3 19 -12 17 -14 17 -14 4z"/>
<path d="M5177 1415 c-24 -50 -20 -58 4 -12 11 22 19 41 17 43 -3 2 -12 -12
-21 -31z"/>
<path d="M5146 1334 c-4 -14 -5 -28 -3 -31 3 -2 8 8 11 23 4 14 5 28 3 31 -3
2 -8 -8 -11 -23z"/>
<path d="M3530 1164 c-47 -30 -78 -53 -70 -50 161 51 200 70 200 98 0 22 -54
2 -130 -48z"/>
<path d="M5082 1167 c-37 -88 -101 -457 -73 -417 6 8 11 33 11 55 1 53 43 253
68 325 8 23 8 23 17 53 13 49 -1 39 -23 -16z"/>
<path d="M2160 1151 c0 -4 9 -20 21 -34 20 -27 83 -50 214 -79 95 -21 815 -10
774 12 -35 19 -168 29 -464 36 l-320 6 -87 34 c-85 33 -138 43 -138 25z"/>
</g>
</svg>
